<svg width="1440" height="733" viewBox="0 0 1440 733" fill="none" xmlns="http://www.w3.org/2000/svg">
<mask id="mask0" style="mask-type:alpha" maskUnits="userSpaceOnUse" x="0" y="0" width="1440" height="733">
<rect width="1440" height="732.775" fill="white"/>
</mask>
<g mask="url(#mask0)">
<path opacity="0.7" d="M0 865.635H1303.57C1360.7 842.8 1414.4 811.576 1455.17 766.838C1455.17 132.812 1458.1 178.249 1449.07 173.822C1347.76 126.288 1251.33 247.454 1146.61 231.609C1085.58 222.522 1043.84 171.725 986.712 153.317C928.613 134.676 865.875 154.482 818.761 188.502C663.016 300.814 668.875 598.603 427.933 602.565C354.943 603.73 300.261 559.457 228.247 590.448C170.392 615.38 114.734 682.022 0.488222 648.468V865.635H0Z" fill="url(#paint0_linear)"/>
<path opacity="0.7" d="M0 805.516C69.0845 837.205 -61.0287 865.633 1454.92 865.633C1454.92 480.23 1458.83 520.308 1445.89 517.046C1277.21 476.036 1287.46 322.481 1108.04 396.579C1031.14 428.268 994.524 450.172 886.381 409.627C822.423 385.627 766.032 353.471 657.157 338.093C582.946 327.84 529.241 327.84 480.418 381.666C442.092 423.608 416.948 484.89 356.896 502.832C290.497 522.638 220.436 487.92 154.036 508.192C93.496 526.833 79.3373 579.027 0 580.193V805.516V805.516Z" fill="url(#paint1_linear)"/>
<path opacity="0.6" d="M1454.92 456.934C1358.74 397.283 1359.48 334.37 1315.78 350.448C1309.68 352.778 1296.01 364.662 1287.95 341.36C1261.1 264.699 1133.91 421.516 977.192 498.41C966.451 487.925 843.661 390.06 822.423 385.167C810.706 382.603 792.153 380.739 782.388 386.099C770.915 392.39 758.709 380.739 752.362 378.176C694.019 355.108 649.59 499.808 397.663 591.848C231.665 652.431 185.283 601.402 129.625 596.275C125.963 596.042 125.963 601.402 129.625 601.635C136.46 602.334 142.807 603.499 149.398 605.13C242.894 754.258 296.6 727.927 610.776 735.15C891.996 741.675 1182.49 754.257 1455.17 691.111L1454.92 456.934Z" fill="url(#paint2_linear)"/>
<path opacity="0.6" d="M1147.1 297.087C1140.02 291.262 1132.21 289.165 1123.66 286.136C1109.26 281.242 1103.89 270.291 1092.9 261.669C1078.5 250.485 1063.37 256.077 1047.99 262.135C1008.2 260.504 969.137 212.97 934.961 253.98C923.732 267.495 917.141 277.514 896.391 271.689C889.068 269.592 881.988 267.262 874.421 270.058C864.9 273.553 860.262 283.34 850.742 287.301C840.977 291.262 830.236 291.495 820.471 296.155C817.542 297.553 819.251 301.747 822.18 301.747C876.862 304.311 931.544 309.204 986.225 305.942C1038.47 302.913 1092.66 298.019 1144.9 302.447C1147.34 302.447 1149.05 298.718 1147.1 297.087Z" fill="white"/>
<path opacity="0.6" d="M680.349 447.842C673.025 442.017 665.458 441.551 656.425 439.453C652.275 438.521 649.102 437.822 646.661 433.861C645.928 432.696 645.684 431.065 644.952 429.9C643.243 427.104 640.802 424.774 638.117 422.91C632.258 418.948 625.911 417.783 619.808 418.482C610.776 410.327 598.082 405.9 585.876 407.997C584.167 408.23 582.459 408.696 580.994 409.162C580.017 409.395 579.041 409.628 577.82 409.861C575.623 410.56 573.67 411.259 571.962 412.424C563.174 416.385 555.85 422.677 550.968 430.599C545.597 428.269 539.739 426.638 533.636 427.337C526.068 428.269 522.406 433.162 517.036 437.822C507.759 445.745 497.507 447.143 485.789 448.075C478.466 448.774 472.119 450.172 466.504 454.832C465.039 455.997 466.26 458.094 467.969 458.094C538.518 462.289 609.067 459.959 678.884 451.104C680.349 451.104 681.813 449.24 680.349 447.842Z" fill="white"/>
<path opacity="0.2" d="M923.56 528.81C923.56 528.81 926.895 517.627 819.58 530.968C712.069 544.309 780.342 538.031 634.966 541.366C489.591 544.701 496.85 546.075 460.163 547.84C423.279 549.606 460.163 542.74 395.028 547.84C329.893 552.941 308.705 559.023 308.705 559.023C308.705 559.023 423.475 558.042 471.149 559.023C518.823 560.004 632.612 545.682 688.526 551.96C744.636 558.238 838.61 543.917 906.491 542.936C974.373 541.955 1070.5 540.974 1070.5 540.974C1070.5 540.974 972.018 524.69 930.623 529.987" fill="white"/>
<path opacity="0.2" d="M26.5859 519.197C101.53 521.159 180.005 516.646 224.932 517.824C269.86 519.001 383.257 509.78 469.579 514.881C556.099 519.982 523.335 524.69 615.151 519.001C706.968 513.311 747.971 517.824 747.971 517.824C747.971 517.824 730.706 514.488 686.368 520.766C642.029 527.044 605.538 530.576 558.257 528.418C510.975 526.26 512.152 526.456 463.498 526.652C414.843 526.848 276.922 530.576 231.014 528.418C185.106 526.26 26.5859 519.197 26.5859 519.197Z" fill="white"/>
<path d="M1290.83 365.385C1288.08 355.576 1307.89 366.366 1307.89 366.366C1307.89 366.366 1300.63 349.494 1301.81 350.867C1302.99 352.044 1317.31 352.24 1317.31 352.24C1317.31 352.24 1302.6 333.406 1305.74 330.071C1309.07 326.736 1330.85 327.913 1330.85 327.913C1330.85 327.913 1311.23 322.027 1301.81 308.098C1292.39 294.169 1290.24 275.531 1291.22 278.081C1292.2 280.828 1303.97 282.397 1303.97 282.397C1303.97 282.397 1291.41 272.588 1295.93 272.196C1300.44 271.999 1324.57 279.062 1324.57 279.062C1324.57 279.062 1271.01 175.867 1267.28 163.507C1263.75 150.951 1282.78 165.273 1282.78 165.273C1282.78 165.273 1271.79 150.951 1274.54 143.3C1277.29 135.648 1290.43 139.768 1290.43 139.768C1290.43 139.768 1234.72 45.5978 1230.99 3.61351C1230.99 3.61351 1228.24 0.0821217 1225.89 3.61351C1225.89 3.61351 1224.12 69.3366 1179.19 146.439C1179.19 146.439 1197.83 136.629 1196.07 140.357C1194.3 143.888 1191.16 149.382 1191.16 149.382C1191.16 149.382 1213.33 142.711 1210.78 146.439C1208.03 150.166 1191.16 216.282 1166.64 244.533C1166.64 244.533 1189.59 227.661 1186.45 234.92C1183.51 241.983 1179.39 249.83 1179.39 249.83C1179.39 249.83 1209.21 233.35 1209.21 238.255C1209.21 242.963 1174.88 315.946 1153.69 339.881C1153.69 339.881 1181.94 331.837 1179.59 336.349C1177.23 340.862 1172.13 349.886 1172.13 349.886C1172.13 349.886 1189.4 340.862 1189.79 347.14C1190.18 353.418 1184.1 359.892 1184.1 359.892C1184.1 359.892 1198.81 354.791 1198.03 360.677C1197.05 366.562 1153.69 477.409 1153.69 477.409C1153.69 477.409 1187.43 452.885 1189.79 456.024C1192.14 459.163 1189.79 470.346 1189.79 470.346C1189.79 470.346 1204.11 457.397 1206.07 462.106C1208.03 466.814 1222.94 456.417 1221.96 461.91C1221.57 464.46 1230.99 466.618 1241.39 468.188V554.315H1263.16V470.934C1265.71 471.131 1267.09 471.327 1267.09 471.327C1267.09 471.327 1262.97 459.359 1267.09 459.948C1271.21 460.536 1298.67 470.738 1298.67 470.738C1298.67 470.738 1296.51 460.536 1304.36 461.91C1312.01 463.283 1350.66 470.934 1350.66 470.934C1350.66 470.934 1293.57 375.194 1290.83 365.385Z" fill="#1D3F5B"/>
<path d="M639.48 555.492C638.891 553.137 643.403 555.688 643.403 555.688C643.403 555.688 641.638 551.764 642.03 552.156C642.226 552.353 645.561 552.549 645.561 552.549C645.561 552.549 642.226 548.233 642.815 547.448C643.6 546.663 648.7 547.056 648.7 547.056C648.7 547.056 644.188 545.682 642.03 542.543C639.872 539.404 639.283 534.892 639.48 535.677C639.676 536.265 642.422 536.658 642.422 536.658C642.422 536.658 639.48 534.303 640.461 534.303C641.441 534.303 647.131 535.873 647.131 535.873C647.131 535.873 634.575 511.938 633.79 508.995C633.005 506.052 637.322 509.387 637.322 509.387C637.322 509.387 634.771 506.052 635.36 504.286C635.948 502.521 639.087 503.502 639.087 503.502C639.087 503.502 626.139 481.529 625.158 471.915C625.158 471.915 624.569 471.131 623.981 471.915C623.981 471.915 623.588 487.218 613.19 505.071C613.19 505.071 617.506 502.717 617.114 503.698C616.722 504.483 615.937 505.856 615.937 505.856C615.937 505.856 621.038 504.286 620.449 505.267C619.861 506.052 615.937 521.551 610.248 528.025C610.248 528.025 615.545 524.102 614.956 525.867C614.171 527.437 613.386 529.399 613.386 529.399C613.386 529.399 620.253 525.671 620.253 526.652C620.253 527.829 612.209 544.701 607.305 550.195C607.305 550.195 613.975 548.233 613.386 549.41C612.798 550.587 611.621 552.549 611.621 552.549C611.621 552.549 615.741 550.391 615.741 551.96C615.741 553.334 614.367 554.903 614.367 554.903C614.367 554.903 617.703 553.726 617.506 555.099C617.31 556.473 607.305 582.173 607.305 582.173C607.305 582.173 615.152 576.484 615.741 577.269C616.329 578.053 615.741 580.604 615.741 580.604C615.741 580.604 619.076 577.661 619.468 578.642C619.861 579.819 623.392 577.269 623.196 578.642C623.196 579.231 625.354 579.819 627.708 580.211V600.223H632.809V580.211C633.398 580.211 633.79 580.211 633.79 580.211C633.79 580.211 632.809 577.465 633.79 577.661C634.771 577.857 641.049 580.211 641.049 580.211C641.049 580.211 640.657 577.857 642.422 578.25C644.188 578.642 653.213 580.408 653.213 580.408C653.213 580.408 640.068 557.846 639.48 555.492Z" fill="#1D3F5B"/>
<path d="M425.634 564.124C424.457 559.808 433.089 564.516 433.089 564.516C433.089 564.516 429.95 557.257 430.343 557.65C430.931 558.238 437.013 558.238 437.013 558.238C437.013 558.238 430.539 549.998 431.912 548.625C433.285 547.252 442.899 547.644 442.899 547.644C442.899 547.644 434.266 545.094 430.146 539.012C426.026 532.93 425.045 524.69 425.438 525.867C425.83 527.044 431.127 527.829 431.127 527.829C431.127 527.829 425.634 523.513 427.596 523.317C429.558 523.121 440.152 526.26 440.152 526.26C440.152 526.26 416.609 481.136 415.04 475.643C413.47 470.15 421.906 476.428 421.906 476.428C421.906 476.428 417.198 470.15 418.375 466.815C419.552 463.479 425.242 465.245 425.242 465.245C425.242 465.245 400.914 424.045 399.149 405.604C399.149 405.604 397.971 404.034 396.991 405.604C396.991 405.604 396.206 434.443 376.587 468.188C376.587 468.188 384.827 463.872 384.042 465.441C383.257 467.011 381.884 469.365 381.884 469.365C381.884 469.365 391.693 466.422 390.516 467.992C389.339 469.561 381.884 498.597 371.29 510.957C371.29 510.957 381.295 503.502 379.922 506.641C378.549 509.78 376.783 513.115 376.783 513.115C376.783 513.115 389.732 505.856 389.732 508.014C389.732 510.172 374.625 541.955 365.404 552.549C365.404 552.549 377.764 549.018 376.783 550.979C375.802 552.941 373.448 556.865 373.448 556.865C373.448 556.865 381.099 552.941 381.099 555.688C381.295 558.435 378.549 561.377 378.549 561.377C378.549 561.377 385.023 559.219 384.631 561.77C384.238 564.32 365.208 612.975 365.208 612.975C365.208 612.975 379.922 602.185 380.903 603.558C381.884 604.931 380.903 609.836 380.903 609.836C380.903 609.836 387.181 604.146 387.966 606.305C388.751 608.463 395.225 603.754 394.832 606.305C394.636 607.482 398.756 608.463 403.269 609.051V646.916H412.882V610.424C414.059 610.621 414.647 610.621 414.647 610.621C414.647 610.621 412.882 605.324 414.647 605.716C416.413 605.912 428.577 610.424 428.577 610.424C428.577 610.424 427.596 605.912 431.127 606.501C434.463 607.089 451.335 610.424 451.335 610.424C451.335 610.424 426.811 568.44 425.634 564.124Z" fill="#1D3F5B"/>
<path d="M1270.23 133.686H1252.37L1260.02 149.97H1252.37C1252.37 149.97 1257.87 162.134 1270.23 191.954C1282.59 221.971 1312.8 258.07 1309.46 259.247C1306.13 260.62 1297.5 259.247 1297.5 259.247C1297.5 259.247 1260.42 255.912 1270.23 264.152C1280.23 272.392 1287.69 286.321 1277.09 290.637C1266.3 294.953 1262.57 294.953 1270.23 310.06C1278.07 325.166 1270.23 347.728 1270.23 347.728V356.164C1270.23 356.164 1268.46 366.955 1282.39 392.263C1296.32 417.571 1309.66 437.19 1309.66 437.19C1309.66 437.19 1285.72 426.988 1290.04 434.64C1294.36 442.291 1297.5 451.119 1290.04 450.531C1282.59 449.942 1252.37 439.348 1252.37 439.348L1267.28 460.34C1271.4 460.929 1298.87 471.131 1298.87 471.131C1298.87 471.131 1296.71 460.929 1304.56 462.302C1312.21 463.675 1350.86 471.327 1350.86 471.327C1350.86 471.327 1293.38 375.391 1290.83 365.581C1288.08 355.772 1307.89 366.562 1307.89 366.562C1307.89 366.562 1300.63 349.69 1301.81 351.063C1302.99 352.24 1317.31 352.437 1317.31 352.437C1317.31 352.437 1302.6 333.603 1305.74 330.267C1309.07 326.932 1330.85 328.109 1330.85 328.109C1330.85 328.109 1311.23 322.224 1301.81 308.294C1292.39 294.365 1290.24 275.727 1291.22 278.277C1292.2 280.828 1303.97 282.593 1303.97 282.593C1303.97 282.593 1291.41 272.784 1295.93 272.392C1300.44 272.196 1324.57 279.258 1324.57 279.258C1324.57 279.258 1271.01 176.063 1267.28 163.703C1263.75 151.147 1282.78 165.469 1282.78 165.469C1282.78 165.469 1271.8 151.147 1274.54 143.496C1277.29 135.845 1290.43 139.965 1290.43 139.965C1290.43 139.965 1234.72 45.794 1230.99 3.80969C1230.99 3.80969 1231.97 67.1786 1252.37 87.7784C1272.78 108.182 1270.23 133.686 1270.23 133.686Z" fill="#0C3049"/>
<path d="M1252.37 464.068L1263.36 531.557V470.934C1265.91 471.131 1267.28 471.327 1267.28 471.327C1267.28 471.327 1264.14 462.302 1266.11 460.34L1252.37 464.068Z" fill="#0C3049"/>
<path d="M-31.6816 678.894V621.215C-31.6816 621.215 1.27802 582.173 44.0471 579.427C86.8162 576.68 70.7287 600.811 128.604 592.179C186.284 583.547 197.466 571.971 244.944 601.596C292.422 631.22 381.884 657.117 448.98 630.239C516.077 603.362 562.966 560.593 633.201 566.871C703.633 573.149 817.03 522.728 879.614 539.012C942.198 555.295 1140.15 584.135 1233.93 539.012C1327.9 493.888 1381.46 539.993 1440.12 532.734L1439.93 607.285L1372.83 693.412L8.73318 707.538L-31.6816 678.894Z" fill="#1D3F5B"/>
<path d="M893.618 658.029C905.633 641.313 901.821 618.022 885.104 606.007C868.388 593.993 845.097 597.804 833.082 614.521C821.068 631.237 824.88 654.528 841.596 666.543C858.313 678.557 881.604 674.746 893.618 658.029Z" fill="#0C3049"/>
<path d="M1173.23 635.564C1185.97 619.385 1183.17 595.949 1166.99 583.218C1150.81 570.487 1127.38 573.282 1114.64 589.462C1101.91 605.641 1104.71 629.077 1120.89 641.808C1137.07 654.539 1160.5 651.744 1173.23 635.564Z" fill="#0C3049"/>
<path d="M1143.88 635.34C1132.3 635.34 1122.3 626.316 1121.32 614.544C1120.73 608.463 1122.69 602.577 1126.61 598.065C1130.54 593.356 1136.03 590.609 1142.11 590.021C1148.2 589.432 1154.08 591.394 1158.59 595.318C1163.3 599.242 1166.05 604.735 1166.64 610.817C1167.23 616.899 1165.26 622.784 1161.34 627.297C1157.42 632.005 1151.92 634.752 1145.84 635.34C1145.06 635.144 1144.47 635.34 1143.88 635.34ZM1143.88 592.375C1143.29 592.375 1142.7 592.375 1142.11 592.375C1136.82 592.767 1131.91 595.318 1128.38 599.438C1124.85 603.558 1123.28 608.855 1123.67 614.152C1124.65 625.139 1134.46 633.378 1145.45 632.594C1150.75 632.201 1155.65 629.651 1159.18 625.531C1162.71 621.411 1164.28 616.114 1163.89 610.817C1163.5 605.52 1160.95 600.615 1156.83 597.084C1153.3 593.945 1148.59 592.375 1143.88 592.375Z" fill="#1D3F5B"/>
<path d="M863.329 658.883C858.032 658.883 852.931 656.921 848.615 653.586C843.907 649.662 841.16 644.169 840.572 638.087C839.983 632.005 841.945 626.12 845.869 621.607C849.792 616.899 855.286 614.152 861.368 613.563C873.924 612.582 884.91 621.803 885.891 634.359C886.872 646.915 877.651 657.902 865.095 658.883C864.507 658.883 863.918 658.883 863.329 658.883ZM863.329 616.114C862.741 616.114 862.152 616.114 861.564 616.114C856.267 616.506 851.362 619.057 847.83 623.177C844.299 627.297 842.73 632.594 843.122 637.891C843.514 643.188 846.065 648.093 850.185 651.624C854.305 655.155 859.602 656.725 864.899 656.332C875.885 655.352 884.322 645.542 883.341 634.556C882.556 623.961 873.727 616.114 863.329 616.114Z" fill="#1D3F5B"/>
<path d="M1225.69 592.964C1224.9 592.375 1223.92 591.983 1222.75 591.983L1219.41 592.179L1216.86 561.181C1214.51 532.538 1210.39 504.09 1204.5 476.035L1200.77 457.986C1199.2 450.335 1194.89 444.057 1189.2 439.74C1183.31 435.424 1176.05 433.07 1168.4 433.855L828.997 462.498C824.484 462.891 820.364 464.656 817.029 467.403C813.89 469.953 811.536 473.485 810.162 477.605L785.835 554.118C785.05 556.473 784.462 558.631 784.069 560.985C782.892 566.478 782.696 572.168 783.088 577.857L787.405 629.062L784.069 629.259C782.892 629.455 781.911 630.043 781.127 630.828C780.538 631.613 780.342 632.398 780.342 633.378L782.107 653.782C782.304 655.155 783.088 656.333 784.266 656.921C784.854 657.313 785.639 657.313 786.424 657.313L823.111 654.174C821.149 649.662 819.776 644.954 819.383 639.853C817.225 615.525 835.471 593.945 859.798 591.983C884.126 589.825 905.706 608.07 907.668 632.398C908.06 637.498 907.668 642.403 906.491 647.112L1103.66 630.436C1101.7 625.923 1100.33 621.215 1099.93 616.114C1097.77 591.787 1116.02 570.206 1140.35 568.244C1164.68 566.086 1186.26 584.331 1188.22 608.659C1188.61 613.76 1188.22 618.664 1187.04 623.373L1225.3 620.234C1226.87 620.038 1228.24 619.057 1228.63 617.487C1228.83 617.095 1228.83 616.506 1228.83 615.918L1227.06 595.514C1226.87 594.533 1226.28 593.552 1225.69 592.964Z" fill="#0C3049"/>
<path d="M1024.6 524.886L975.549 529.006C974.568 529.006 973.783 529.006 972.999 528.614C971.429 527.829 970.252 526.456 970.252 524.494L966.524 479.763C966.328 477.997 967.113 476.428 968.29 475.447C969.075 474.858 970.056 474.466 971.037 474.27L1020.08 470.15C1021.46 469.953 1022.63 470.542 1023.62 471.327C1024.6 472.112 1025.18 473.289 1025.38 474.662L1029.11 519.393C1029.3 521.355 1028.32 522.924 1026.95 523.905C1026.17 524.69 1025.38 524.886 1024.6 524.886ZM901.978 535.284L951.026 531.164C952.399 530.968 953.38 530.38 954.165 529.595C955.145 528.614 955.538 527.24 955.538 525.867L951.81 481.136C951.81 480.155 951.418 479.371 950.829 478.586C949.848 477.212 948.279 476.428 946.513 476.624L897.466 480.744C896.485 480.744 895.504 481.332 894.719 481.921C893.542 482.902 892.758 484.471 892.954 486.237L896.681 530.968C896.878 532.734 897.858 534.303 899.428 535.088C900.213 535.284 900.997 535.48 901.978 535.284ZM1113.67 467.403L1117.39 512.134C1117.59 514.096 1118.77 515.665 1120.34 516.254C1121.12 516.646 1121.91 516.646 1122.69 516.646L1177.03 512.134C1178.21 512.134 1179.19 511.545 1179.98 510.761C1180.96 509.78 1181.74 508.21 1181.55 506.641L1177.82 461.91C1177.62 460.536 1177.03 459.359 1176.05 458.575C1175.07 457.79 1173.7 457.201 1172.33 457.397L1117.98 461.91C1116.8 462.106 1115.82 462.498 1115.04 463.283C1114.06 464.264 1113.47 465.834 1113.67 467.403ZM872.746 482.706L839.198 485.452C838.217 485.452 837.432 485.845 836.648 486.433C835.863 487.022 835.078 488.003 834.882 488.984L820.364 535.284C819.579 537.639 820.756 539.797 822.522 540.974C823.307 541.562 824.484 541.758 825.465 541.758L877.259 537.442C878.632 537.246 879.809 536.658 880.594 535.677C881.379 534.696 881.771 533.519 881.771 532.145L878.043 487.414C878.043 486.433 877.651 485.649 877.259 485.06C876.278 483.49 874.512 482.51 872.746 482.706ZM1093.46 464.068L1044.41 468.188C1043.23 468.384 1042.25 468.776 1041.47 469.561C1040.49 470.542 1039.9 471.915 1039.9 473.485L1043.63 518.216C1043.82 519.589 1044.41 520.766 1045.39 521.551C1046.37 522.336 1047.55 522.728 1048.92 522.728L1097.97 518.608C1099.15 518.608 1100.13 518.02 1100.91 517.235C1102.09 516.254 1102.68 514.684 1102.48 513.115L1098.76 468.384C1098.56 466.814 1097.77 465.441 1096.6 464.656C1095.81 464.264 1094.64 464.068 1093.46 464.068Z" fill="#92D3E1"/>
<path d="M1127.74 421.534L895.488 441.148L896.05 447.795L1128.31 428.181L1127.74 421.534Z" fill="#0C3049"/>
<path d="M922.521 442.114L916.852 442.593L918.206 458.624L923.875 458.145L922.521 442.114Z" fill="#0C3049"/>
<path d="M1079.88 428.963L1074.21 429.442L1075.57 445.473L1081.24 444.994L1079.88 428.963Z" fill="#0C3049"/>
<path d="M1107.39 390.301L1103.27 390.693L1103.07 388.928C1102.88 386.181 1100.32 384.023 1097.58 384.219L1085.02 385.2V385.004C1084.83 381.669 1081.88 379.314 1078.55 379.511L1070.31 380.295L1070.11 377.745C1069.72 373.821 1066.38 370.878 1062.26 371.271L1040.49 373.036C1036.56 373.429 1033.62 376.764 1034.01 380.884L1034.21 383.434L1025.77 384.023C1022.44 384.219 1020.08 387.162 1020.28 390.497L1020.87 397.56L1015.96 397.952L1015.38 390.89C1015.18 387.554 1012.24 385.2 1008.9 385.396L943.374 390.89C940.039 391.086 937.685 394.028 937.881 397.364L938.273 400.895L923.559 402.072L923.951 405.8L938.666 404.623L939.058 408.154C939.254 411.489 942.197 413.844 945.532 413.647L917.281 416.002C913.946 416.198 911.592 419.141 911.788 422.476L912.769 433.266C912.965 436.601 915.908 438.956 919.243 438.759L1001.84 431.697L1012.82 430.716L1029.7 429.342L1035.78 428.754L1076.19 425.419L1082.28 424.83L1110.13 422.476C1113.47 422.28 1115.82 419.337 1115.63 416.002L1113.86 395.402C1113.67 392.459 1110.72 390.105 1107.39 390.301ZM1097.58 385.985C1099.34 385.789 1100.91 387.162 1101.11 388.928L1101.31 390.693L1085.41 392.067L1085.02 386.966L1097.58 385.985ZM1036.37 380.492C1036.17 377.941 1038.13 375.783 1040.68 375.391L1062.46 373.625C1065.01 373.429 1067.17 375.391 1067.56 377.941L1067.76 380.492L1036.76 383.042L1036.37 380.492Z" fill="#0C3049"/>
<path d="M922.833 426.246L904.456 427.798L904.77 431.513L923.147 429.96L922.833 426.246Z" fill="#0C3049"/>
<path d="M-31.6816 737.162V678.894C-31.6816 678.894 238.078 708.911 661.845 681.052C1141.72 649.662 1439.93 607.089 1439.93 607.089L1439.73 737.162H-31.6816Z" fill="#0C3049"/>
<path d="M247.69 610.228C247.101 612.975 246.709 615.722 246.905 618.664C247.101 622.196 247.101 627.297 243.178 628.866C240.431 630.043 238.665 628.474 239.058 625.531C239.254 623.765 240.235 622 241.019 620.234C242.197 617.487 242.589 615.133 242.197 612.779C231.014 618.272 219.243 625.727 209.237 635.733C209.237 639.264 210.022 642.992 211.199 646.131C212.572 649.662 214.926 654.371 211.984 657.902C209.433 660.845 206.883 659.472 205.509 656.529C204.332 653.978 204.528 651.232 204.528 648.681C204.528 646.327 203.94 644.365 203.155 642.599C201.978 643.973 200.801 645.542 199.82 646.916C199.231 633.967 196.289 621.019 190.991 609.051C190.207 607.286 189.422 605.716 188.637 604.147C194.327 603.95 205.706 600.615 207.667 579.427C207.667 579.427 186.479 581.389 184.517 595.71C180.005 586.882 175.493 578.25 171.373 569.421C176.277 568.244 188.441 563.339 185.302 540.581C185.302 540.581 168.626 546.467 166.664 558.238C163.721 550.195 161.563 541.759 160.582 532.734C160.386 531.164 160.386 529.595 160.19 528.222C164.898 529.006 178.632 529.202 183.929 506.248C183.929 506.248 166.664 505.856 160.582 515.862C161.563 504.287 164.702 493.3 169.999 483.294C174.512 486.041 186.479 490.357 199.82 472.308C199.82 472.308 188.833 467.207 179.613 469.365C182.555 466.03 185.694 463.087 189.03 460.144C195.111 459.948 205.117 456.417 208.648 437.19C208.648 437.19 181.378 437.386 183.929 457.79C180.986 460.144 178.435 462.695 175.885 465.441C175.885 460.34 173.923 453.866 167.449 446.019C167.449 446.019 150.184 466.618 166.664 477.997C160.582 488.395 157.051 499.97 155.678 512.134C152.931 507.426 147.241 502.913 136.059 500.167C136.059 500.167 134.882 527.044 154.893 525.867C155.089 535.284 156.462 544.701 159.209 553.726C155.285 550.587 148.811 548.429 138.805 548.821C138.805 548.821 145.083 575.503 164.506 568.44C168.037 576.68 172.55 584.724 176.67 592.571C172.746 591.198 167.449 590.806 160.582 592.964C156.658 588.648 152.146 584.331 147.438 580.015C145.476 585.116 145.28 590.61 144.299 597.084C143.71 600.615 142.141 604.539 138.021 603.362C131.939 601.792 134.293 594.337 135.666 590.413C138.609 581.389 136.059 573.933 131.546 566.675C119.186 557.257 104.472 547.84 87.2077 538.62C87.2077 538.62 83.4802 559.808 85.8344 587.863C88.9734 589.825 92.5048 591.394 96.2324 592.571C100.941 593.945 107.415 596.103 107.808 601.792C108.2 605.716 105.257 607.482 101.726 605.716C99.3714 604.735 97.6057 602.577 95.84 600.811C92.701 598.065 89.9544 596.495 86.8154 596.103C88.9734 612.779 93.4858 631.22 102.118 648.485C106.63 650.055 111.731 650.643 116.44 650.447C121.541 650.251 128.8 649.27 131.939 654.371C134.685 658.883 131.743 661.63 127.23 662.218C123.503 662.611 119.971 661.041 116.636 660.06C113.497 659.079 110.947 658.883 108.2 659.275C123.699 683.995 148.811 705.184 189.814 714.601C189.814 714.601 190.207 713.816 190.795 712.443C202.567 712.05 226.109 707.93 246.905 684.191C240.823 680.856 226.894 690.273 224.343 682.426C222.774 677.717 228.856 677.521 231.799 677.913C235.526 678.502 238.469 680.071 242.393 679.483C247.298 678.894 251.614 676.344 255.341 673.205C259.657 666.927 263.777 659.472 267.505 650.839C263.581 650.643 259.461 651.82 254.753 652.605C252.202 652.997 249.063 652.801 248.867 649.662C248.671 645.15 254.164 644.954 257.303 644.954C264.366 644.954 269.074 641.422 272.802 636.518C276.53 625.531 279.669 613.171 282.023 598.849C282.415 599.438 266.72 601.988 247.69 610.228ZM194.523 652.605C192.169 642.796 188.049 632.005 181.574 621.019C174.512 627.297 180.593 649.466 169.607 649.074C162.74 648.877 165.095 641.226 167.056 637.695C169.607 633.182 172.746 630.043 173.727 624.746C174.904 619.253 174.119 613.564 172.354 608.266C175.885 609.051 179.809 608.463 183.732 605.912C185.498 609.64 187.068 613.367 188.637 617.095C192.757 628.278 194.915 640.245 194.719 652.213C194.523 652.409 194.523 652.605 194.523 652.605Z" fill="#0C3049"/>
</g>
<defs>
<linearGradient id="paint0_linear" x1="729.146" y1="618.264" x2="734.508" y2="290.582" gradientUnits="userSpaceOnUse">
<stop offset="0.00558659" stop-color="#04DEFF"/>
<stop offset="0.9944" stop-color="#5DF04E"/>
</linearGradient>
<linearGradient id="paint1_linear" x1="0.0214821" y1="599.22" x2="1455.6" y2="599.22" gradientUnits="userSpaceOnUse">
<stop offset="0.00558659" stop-color="#30D220"/>
<stop offset="0.9944" stop-color="#5DF04E"/>
</linearGradient>
<linearGradient id="paint2_linear" x1="126.896" y1="530.737" x2="1455.22" y2="530.737" gradientUnits="userSpaceOnUse">
<stop offset="0.00558659" stop-color="#53B3FA"/>
<stop offset="0.9944" stop-color="#4A5CF0"/>
</linearGradient>
</defs>
</svg>
