<svg width="160" height="160" viewBox="0 0 160 160" fill="none" xmlns="http://www.w3.org/2000/svg">
<circle cx="80" cy="80" r="80" fill="#0C3049"/>
<path d="M92.2382 116.271C88.294 117.575 84.0212 118.335 79.6387 118.335C64.7385 118.335 51.9199 110.081 45.3463 97.9185H30.0078C37.0197 116.923 54.6589 130.715 75.9137 132.235L92.2382 152V116.271Z" fill="white"/>
<path d="M67.0391 43.7285C70.9832 42.4253 75.2561 41.6652 79.6385 41.6652C94.5388 41.6652 107.357 49.9186 113.931 62.0814H129.379C122.367 43.0769 104.728 29.2851 83.4732 27.7647L67.0391 8V43.7285Z" fill="#5DF04E"/>
<path d="M43.0454 92.4887C41.7307 88.5792 40.9638 84.3439 40.9638 80C40.9638 65.2308 49.2904 52.5249 61.5612 46.009V30.8054C42.3881 37.7556 28.4739 55.2398 26.94 76.3077L7 92.4887H43.0454Z" fill="white"/>
<path d="M116.232 67.5112C117.546 71.4207 118.313 75.656 118.313 79.9999C118.313 94.7691 109.987 107.475 97.7158 113.991V129.303C116.889 122.353 130.803 104.869 132.337 83.8008L152.277 67.6198H116.232V67.5112Z" fill="white"/>
</svg>
