<svg width="60%" height="60%" viewBox="0 0 738 144" fill="none" xmlns="http://www.w3.org/2000/svg"> <g clip-path="url(#clip0)"> <path d="M85.2382 108.271C81.294 109.575 77.0212 110.335 72.6387 110.335C57.7385 110.335 44.9199 102.081 38.3463 89.9185H23.0078C30.0197 108.923 47.6589 122.715 68.9137 124.235L85.2382 144V108.271Z" fill="white"/> <path d="M60.0391 35.7285C63.9832 34.4253 68.2561 33.6652 72.6385 33.6652C87.5388 33.6652 100.357 41.9186 106.931 54.0815H122.379C115.367 35.0769 97.7279 21.2851 76.4732 19.7647L60.0391 0V35.7285Z" fill="#5DF04E"/> <path d="M36.0454 84.4887C34.7307 80.5792 33.9638 76.3439 33.9638 72C33.9638 57.2308 42.2904 44.5249 54.5612 38.009V22.8054C35.3881 29.7556 21.4739 47.2398 19.94 68.3077L0 84.4887H36.0454Z" fill="white"/> <path d="M109.232 59.5112C110.546 63.4207 111.313 67.656 111.313 71.9999C111.313 86.7691 102.987 99.475 90.7158 105.991V121.303C109.889 114.353 123.803 96.8687 125.337 75.8008L145.277 59.6198H109.232V59.5112Z" fill="white"/> <path d="M212.876 46.4796H188.006V110.335H176.064V46.4796H151.194V36.1628H212.986V46.4796H212.876Z" fill="white"/> <path d="M222.956 110.335V36.1628H255.496C258.892 36.1628 261.96 36.8144 264.808 38.2262C267.657 39.638 270.067 41.4841 272.149 43.7647C274.23 46.0452 275.874 48.6515 276.969 51.4751C278.175 54.2986 278.722 57.2307 278.722 60.2714C278.722 63.5294 278.175 66.6787 276.969 69.7194C275.764 72.7601 274.121 75.2579 271.82 77.4298C269.629 79.6018 266.999 81.1221 264.041 82.0995L281.681 110.335H268.424L252.209 84.4886H234.789V110.335H222.956ZM234.679 74.1719H255.386C257.577 74.1719 259.549 73.5203 261.193 72.3257C262.836 71.0226 264.26 69.3936 265.246 67.2217C266.232 65.0497 266.671 62.7692 266.671 60.2714C266.671 57.6651 266.123 55.3846 265.027 53.3212C263.932 51.2579 262.398 49.6289 260.645 48.3257C258.892 47.0226 256.92 46.4796 254.838 46.4796H234.789V74.1719H234.679Z" fill="white"/> <path d="M314.22 36.1628H325.395L354.429 110.335H341.939L334.708 90.1357H304.798L297.457 110.335H284.858L314.22 36.1628ZM331.531 81.5565L319.698 49.0859L307.866 81.5565H331.531Z" fill="white"/> <path d="M362.317 36.1628L384.887 96L407.346 36.1628H419.836L390.474 110.335H379.299L349.827 36.1628H362.317Z" fill="white"/> <path d="M480.423 100.018V110.335H429.149V36.1628H479.547V46.4796H440.981V67.5475H474.397V77.2126H440.981V99.9095H480.423V100.018Z" fill="white"/> <path d="M492.585 110.335V36.1628H504.418V100.018H544.517V110.335H492.585Z" fill="white"/> <path d="M554.158 110.335V36.1628H565.99V100.018H606.089V110.335H554.158Z" fill="white"/> <path d="M667.005 100.018V110.335H615.73V36.1628H666.128V46.4796H627.563V67.5475H660.979V77.2126H627.563V99.9095H667.005V100.018Z" fill="white"/> <path d="M679.276 110.335V36.1628H711.815C715.212 36.1628 718.279 36.8144 721.128 38.2262C723.976 39.638 726.387 41.4841 728.468 43.7647C730.55 46.0452 732.193 48.6515 733.289 51.4751C734.494 54.2986 735.042 57.2307 735.042 60.2714C735.042 63.5294 734.494 66.6787 733.289 69.7194C732.084 72.7601 730.44 75.2579 728.14 77.4298C725.948 79.6018 723.319 81.1221 720.361 82.0995L738 110.335H724.743L708.528 84.4886H691.108V110.335H679.276ZM691.108 74.1719H711.815C714.006 74.1719 715.978 73.5203 717.622 72.3257C719.265 71.0226 720.69 69.3936 721.676 67.2217C722.662 65.0497 723.1 62.7692 723.1 60.2714C723.1 57.6651 722.552 55.3846 721.457 53.3212C720.361 51.2579 718.827 49.6289 717.074 48.3257C715.321 47.0226 713.349 46.4796 711.267 46.4796H691.218V74.1719H691.108Z" fill="white"/> </g> <defs> <clipPath id="clip0"> <rect width="738" height="144" fill="white"/> </clipPath> </defs> </svg>