<svg width="273" height="56" viewBox="0 0 273 56" fill="none" xmlns="http://www.w3.org/2000/svg">
<path d="M31.5309 41.7824C30.0719 42.2845 28.4913 42.5774 26.8701 42.5774C21.3583 42.5774 16.6164 39.3973 14.1847 34.7107H8.51074C11.1046 42.0335 17.6297 47.3477 25.4922 47.9335L31.5309 55.5492V41.7824Z" fill="#0C3049"/>
<path d="M22.2095 13.8304C23.6685 13.3283 25.2491 13.0354 26.8703 13.0354C32.3821 13.0354 37.124 16.2155 39.5557 20.9021H45.2702C42.6764 13.5793 36.1513 8.2651 28.2887 7.67928L22.2095 0.0635986V13.8304Z" fill="#5DF04E"/>
<path d="M13.3339 32.6186C12.8475 31.1122 12.5638 29.4802 12.5638 27.8064C12.5638 22.1156 15.644 17.2198 20.1832 14.7092V8.85095C13.0907 11.529 7.94359 18.2659 7.37619 26.3837L0 32.6186H13.3339Z" fill="#0C3049"/>
<path d="M40.4069 22.9944C40.8933 24.5008 41.177 26.1327 41.177 27.8065C41.177 33.4973 38.0968 38.3931 33.5576 40.9038V46.8038C40.6501 44.1258 45.7972 37.3888 46.3646 29.271L53.7408 23.0362H40.4069V22.9944Z" fill="#0C3049"/>
<path d="M78.7468 17.9729H69.5468V42.5774H65.1292V17.9729H55.9292V13.9977H78.7873V17.9729H78.7468Z" fill="#9E9E9E"/>
<path d="M82.4751 42.5774V13.9977H94.5121C95.7684 13.9977 96.9032 14.2487 97.957 14.7927C99.0107 15.3367 99.9023 16.0481 100.672 16.9268C101.442 17.8055 102.05 18.8098 102.456 19.8977C102.901 20.9857 103.104 22.1155 103.104 23.2871C103.104 24.5425 102.901 25.7559 102.456 26.9276C102.01 28.0992 101.402 29.0617 100.551 29.8985C99.7402 30.7354 98.7676 31.3212 97.6733 31.6978L104.198 42.5774H99.2944L93.2962 32.6184H86.8522V42.5774H82.4751ZM86.8116 28.6432H94.4715C95.2821 28.6432 96.0116 28.3921 96.6195 27.9319C97.2275 27.4297 97.7543 26.8021 98.1191 25.9652C98.4839 25.1283 98.646 24.2496 98.646 23.2871C98.646 22.2829 98.4433 21.4041 98.038 20.6091C97.6328 19.814 97.0654 19.1864 96.4169 18.6843C95.7684 18.1821 95.0389 17.9729 94.2689 17.9729H86.8522V28.6432H86.8116Z" fill="#9E9E9E"/>
<path d="M116.236 13.9977H120.37L131.11 42.5774H126.489L123.814 34.7943H112.75L110.035 42.5774H105.374L116.236 13.9977ZM122.639 31.4886L118.262 18.9772L113.885 31.4886H122.639Z" fill="#9E9E9E"/>
<path d="M134.028 13.9977L142.377 37.0539L150.685 13.9977H155.305L144.444 42.5774H140.31L129.408 13.9977H134.028Z" fill="#9E9E9E"/>
<path d="M177.717 38.6022V42.5774H158.75V13.9977H177.393V17.9729H163.127V26.0907H175.488V29.8149H163.127V38.5603H177.717V38.6022Z" fill="#9E9E9E"/>
<path d="M182.216 42.5774V13.9977H186.593V38.6022H201.426V42.5774H182.216Z" fill="#9E9E9E"/>
<path d="M204.993 42.5774V13.9977H209.37V38.6022H224.204V42.5774H204.993Z" fill="#9E9E9E"/>
<path d="M246.737 38.6022V42.5774H227.77V13.9977H246.413V17.9729H232.147V26.0907H244.508V29.8149H232.147V38.5603H246.737V38.6022Z" fill="#9E9E9E"/>
<path d="M251.277 42.5774V13.9977H263.314C264.57 13.9977 265.705 14.2487 266.759 14.7927C267.813 15.3367 268.704 16.0481 269.474 16.9268C270.244 17.8055 270.852 18.8098 271.257 19.8977C271.703 20.9857 271.906 22.1155 271.906 23.2871C271.906 24.5425 271.703 25.7559 271.257 26.9276C270.812 28.0992 270.204 29.0617 269.353 29.8985C268.542 30.7354 267.569 31.3212 266.475 31.6978L273 42.5774H268.096L262.098 32.6184H255.654V42.5774H251.277ZM255.654 28.6432H263.314C264.124 28.6432 264.854 28.3921 265.462 27.9319C266.07 27.4297 266.597 26.8021 266.961 25.9652C267.326 25.1283 267.488 24.2496 267.488 23.2871C267.488 22.2829 267.286 21.4041 266.88 20.6091C266.475 19.814 265.908 19.1864 265.259 18.6843C264.611 18.1821 263.881 17.9729 263.111 17.9729H255.694V28.6432H255.654Z" fill="#9E9E9E"/>
</svg>
